Coordinates
version=1
nRows=34
nColumns=38
inDegrees=no

Units are S.I. units (second, meters, Newtons, ...)
If the header above contains a line with 'inDegrees', this indicates whether rotational values are in degrees (yes) or radians (no).

endheader
time	pelvis_tilt	pelvis_list	pelvis_rotation	pelvis_tx	pelvis_ty	pelvis_tz	hip_flexion_r	hip_adduction_r	hip_rotation_r	knee_angle_r	ankle_angle_r	subtalar_angle_r	mtp_angle_r	hip_flexion_l	hip_adduction_l	hip_rotation_l	knee_angle_l	ankle_angle_l	subtalar_angle_l	mtp_angle_l	lumbar_extension	lumbar_bending	lumbar_rotation	arm_flex_r	arm_add_r	arm_rot_r	elbow_flex_r	pro_sup_r	wrist_flex_r	wrist_dev_r	arm_flex_l	arm_add_l	arm_rot_l	elbow_flex_l	pro_sup_l	wrist_flex_l	wrist_dev_l
0	2.95813	1.35121	-1.45783	0.65849	-0.410868	1.04802	-0.129953	-0.0774803	-0.162903	0.445434	-0.154155	0	0	-0.321153	-0.0590382	-0.265089	0.089302	-0.389625	0	0	-0.400269	-0.187072	-0.066944	0.0498804	-0.353	0.620907	0.643024	0.938075	0	0	0.0759778	-0.456643	-0.941532	0.465358	1.5708	0	0
0.01	2.961	1.35555	-1.4604	0.658481	-0.410202	1.04788	-0.1271	-0.0784387	-0.16104	0.443716	-0.153337	0	0	-0.318344	-0.0580313	-0.265174	0.0871761	-0.392159	0	0	-0.385809	-0.18836	-0.0630214	0.0447224	-0.345627	0.609953	0.631723	0.942606	0	0	0.0635815	-0.456774	-0.905532	0.467842	1.5708	0	0
0.02	2.96692	1.35499	-1.46547	0.658387	-0.409817	1.04789	-0.129367	-0.0799422	-0.162647	0.442249	-0.152887	0	0	-0.321756	-0.0563044	-0.26365	0.0820984	-0.394133	0	0	-0.384128	-0.186812	-0.0619569	0.043322	-0.346331	0.608475	0.632777	0.942685	0	0	0.062265	-0.447939	-0.910277	0.471656	1.5708	0	0
0.03	2.97523	1.35457	-1.4719	0.658156	-0.409474	1.0479	-0.131598	-0.0820604	-0.165463	0.441017	-0.152432	0	0	-0.324066	-0.0545735	-0.26256	0.0789819	-0.395218	0	0	-0.382484	-0.185031	-0.0610663	0.0412404	-0.346934	0.605738	0.633863	0.942993	0	0	0.0616404	-0.439446	-0.908952	0.473348	1.5708	0	0
0.04	2.93824	1.3655	-1.43865	0.656746	-0.408009	1.04738	-0.120006	-0.0774899	-0.159402	0.439452	-0.15622	0	0	-0.314796	-0.0586875	-0.273049	0.0766842	-0.394716	0	0	-0.336174	-0.169025	-0.0481669	0.0332434	-0.351741	0.624314	0.615218	0.945669	0	0	0.150362	-0.565032	-0.102123	0.149015	1.28503	0	0
0.05	2.95092	1.37095	-1.44891	0.656798	-0.407463	1.04737	-0.116177	-0.0805039	-0.160192	0.438499	-0.155612	0	0	-0.312901	-0.0545405	-0.263854	0.0684914	-0.399796	0	0	-0.340107	-0.169756	-0.0372162	0.0210984	-0.350709	0.593536	0.623537	0.956013	0	0	0.156352	-0.555415	-0.0974288	0.165481	1.27852	0	0
0.06	2.95959	1.36888	-1.45571	0.65651	-0.407066	1.04742	-0.120615	-0.0822676	-0.162872	0.436428	-0.154937	0	0	-0.319006	-0.052539	-0.26164	0.0612205	-0.403281	0	0	-0.340183	-0.167585	-0.0372396	0.0200033	-0.350674	0.592238	0.623722	0.96139	0	0	0.147314	-0.545403	-0.105648	0.179479	1.27104	0	0
0.07	2.96853	1.36695	-1.46259	0.656175	-0.406593	1.04745	-0.125111	-0.0841022	-0.165751	0.43411	-0.15452	0	0	-0.325256	-0.0504301	-0.259508	0.0533814	-0.407458	0	0	-0.339834	-0.165283	-0.0375089	0.0189435	-0.350479	0.591672	0.623265	0.967034	0	0	0.137614	-0.534664	-0.112155	0.194129	1.26383	0	0
0.08	2.97751	1.36445	-1.46921	0.655794	-0.406155	1.04754	-0.130337	-0.08594	-0.169434	0.431626	-0.15414	0	0	-0.332133	-0.0484295	-0.257108	0.0455601	-0.411575	0	0	-0.340399	-0.162419	-0.0383604	0.0183785	-0.350572	0.592081	0.623109	0.972846	0	0	0.127986	-0.523245	-0.116147	0.208863	1.25768	0	0
0.09	2.98584	1.36226	-1.47538	0.655409	-0.405705	1.04761	-0.135062	-0.0876894	-0.172261	0.429486	-0.153634	0	0	-0.339051	-0.0464741	-0.254695	0.0371056	-0.416035	0	0	-0.340751	-0.159118	-0.0395969	0.0184513	-0.35069	0.593698	0.622581	0.978337	0	0	0.117753	-0.51133	-0.11733	0.224045	1.25334	0	0
0.1	2.99406	1.36036	-1.48134	0.654978	-0.405227	1.04768	-0.13953	-0.0894212	-0.174918	0.427215	-0.15327	0	0	-0.345896	-0.0443861	-0.251701	0.028049	-0.421098	0	0	-0.340743	-0.155335	-0.04155	0.0191032	-0.350966	0.597037	0.621713	0.982788	0	0	0.106954	-0.498981	-0.115256	0.239594	1.25173	0	0
0.11	3.00347	1.35859	-1.48776	0.654449	-0.404716	1.04771	-0.144058	-0.0914019	-0.178314	0.42478	-0.153122	0	0	-0.352918	-0.0420113	-0.24723	0.0180446	-0.426347	0	0	-0.340255	-0.151351	-0.0450137	0.0203998	-0.351597	0.603322	0.62072	0.986164	0	0	0.0948087	-0.486731	-0.111223	0.256212	1.25165	0	0
0.12	3.00893	1.35097	-1.49074	0.653611	-0.404337	1.04777	-0.15488	-0.0926684	-0.183326	0.42199	-0.152352	0	0	-0.366417	-0.0409051	-0.247607	0.00822192	-0.430281	0	0	-0.334708	-0.14563	-0.0572338	0.0291071	-0.351306	0.627705	0.611626	0.992807	0	0	0.0718419	-0.474565	-0.111791	0.269653	1.25064	0	0
0.13	3.02392	1.35501	-1.50238	0.653363	-0.40374	1.04768	-0.152603	-0.0959424	-0.1844	0.42137	-0.151275	0	0	-0.366875	-0.0370626	-0.239854	0	-0.43569	0	0	-0.339196	-0.143798	-0.0497277	0.019364	-0.351099	0.603808	0.619668	1.00031	0	0	0.0748811	-0.463441	-0.0842216	0.286241	1.25284	0	0
0.14	3.03282	1.35294	-1.50866	0.652842	-0.403162	1.04763	-0.157148	-0.0979943	-0.187363	0.419717	-0.150201	0	0	-0.373039	-0.0353282	-0.240922	0	-0.440177	0	0	-0.338141	-0.139991	-0.0520204	0.0178856	-0.349918	0.600912	0.618303	1.03059	0	0	0.067124	-0.446605	-0.111588	0.297019	1.30978	0	0
0.15	3.04178	1.35174	-1.51537	0.652357	-0.402565	1.0475	-0.160277	-0.100179	-0.189177	0.419228	-0.149405	0	0	-0.377967	-0.0334411	-0.243097	0	-0.440185	0	0	-0.335742	-0.136032	-0.0544525	0.0183047	-0.351076	0.608151	0.618299	1.01105	0	0	0.0575711	-0.436036	-0.0795868	0.309678	1.28165	0	0
0.16	3.05117	1.34964	-1.52189	0.651791	-0.402033	1.04745	-0.164742	-0.102347	-0.191965	0.417762	-0.148547	0	0	-0.384046	-0.0314868	-0.244478	0	-0.442667	0	0	-0.334616	-0.132115	-0.0577391	0.0181799	-0.350826	0.609604	0.616838	1.01523	0	0	0.049279	-0.422137	-0.0749266	0.321169	1.29475	0	0
0.17	3.06346	1.345	-1.53019	0.651123	-0.401552	1.04765	-0.173158	-0.104926	-0.197593	0.413493	-0.147818	0	0	-0.390309	-0.0306735	-0.249203	0	-0.448387	0	0	-0.337009	-0.128636	-0.0629464	0.0184803	-0.3496	0.607936	0.614892	1.04397	0	0	0.0406438	-0.40779	-0.0813527	0.333756	1.33767	0	0
0.18	3.06841	1.34507	-1.53311	0.650619	-0.400881	1.04733	-0.174499	-0.106305	-0.198546	0.413796	-0.146956	0	0	-0.396746	-0.0278397	-0.247501	0	-0.448648	0	0	-0.333161	-0.12396	-0.0660692	0.0188291	-0.350564	0.613622	0.61464	1.02632	0	0	0.03205	-0.395165	-0.0631208	0.343566	1.32643	0	0
0.19	3.07171	1.34426	-1.53533	0.650221	-0.400112	1.04708	-0.177069	-0.107257	-0.19927	0.412943	-0.145906	0	0	-0.402231	-0.0264833	-0.250535	0	-0.451921	0	0	-0.329823	-0.119155	-0.0685332	0.0188621	-0.350515	0.615618	0.613003	1.02985	0	0	0.023043	-0.381683	-0.0547471	0.353895	1.33981	0	0
0.2	3.07171	1.34155	-1.53409	0.649666	-0.399407	1.04682	-0.181812	-0.107455	-0.200441	0.411657	-0.144505	0	0	-0.409344	-0.0261254	-0.255429	0	-0.455271	0	0	-0.321629	-0.114538	-0.0763123	0.0228316	-0.348871	0.627867	0.605497	1.03402	0	0	0.00787507	-0.369656	-0.0466696	0.363957	1.35573	0	0
0.21	3.07945	1.34299	-1.53871	0.649376	-0.398691	1.04657	-0.182296	-0.108824	-0.201978	0.410747	-0.143429	0	0	-0.41133	-0.0245796	-0.254784	0	-0.457539	0	0	-0.322424	-0.110149	-0.0761249	0.0199401	-0.34999	0.622887	0.608944	1.03637	0	0	0.00449965	-0.357769	-0.0336581	0.376487	1.36953	0	0
0.22	3.08445	1.34246	-1.54093	0.648949	-0.398119	1.04636	-0.184418	-0.10982	-0.203731	0.410525	-0.142195	0	0	-0.415413	-0.0236084	-0.254953	0	-0.45976	0	0	-0.319692	-0.10563	-0.0781523	0.0180398	-0.349357	0.618153	0.608663	1.0385	0	0	-0.00167143	-0.346084	-0.0215611	0.385945	1.3833	0	0
0.23	3.09079	1.34207	-1.54423	0.648568	-0.397525	1.04618	-0.186557	-0.111011	-0.20603	0.409952	-0.140929	0	0	-0.418603	-0.0227169	-0.255212	0	-0.46184	0	0	-0.315643	-0.101173	-0.0801513	0.015739	-0.348511	0.613188	0.607517	1.04051	0	0	-0.0079479	-0.333698	-0.0128778	0.393549	1.39441	0	0
0.24	3.09642	1.34231	-1.5469	0.64825	-0.396889	1.04597	-0.187986	-0.112067	-0.208885	0.409362	-0.139522	0	0	-0.4211	-0.0219722	-0.25469	0	-0.463744	0	0	-0.309869	-0.0965702	-0.0814351	0.0127189	-0.347634	0.607855	0.605814	1.04216	0	0	-0.0138624	-0.319854	-0.00895028	0.398754	1.40082	0	0
0.25	3.09922	1.34352	-1.54797	0.648001	-0.396154	1.04573	-0.187476	-0.112794	-0.210155	0.410458	-0.137866	0	0	-0.422432	-0.0215144	-0.256234	0	-0.465674	0	0	-0.30227	-0.0914872	-0.0812923	0.00916213	-0.346888	0.601657	0.603445	1.0441	0	0	-0.019104	-0.304017	-0.00975584	0.400502	1.40202	0	0
0.26	3.10014	1.34431	-1.54714	0.647764	-0.395601	1.04556	-0.186252	-0.113016	-0.20928	0.41421	-0.136479	0	0	-0.423752	-0.0215161	-0.257281	0	-0.466991	0	0	-0.295966	-0.0859846	-0.0812635	0.00658889	-0.346246	0.596243	0.600805	1.04484	0	0	-0.0234352	-0.287552	-0.0129425	0.401398	1.39737	0	0
0.27	3.10152	1.34496	-1.5466	0.647551	-0.395156	1.04543	-0.184874	-0.113322	-0.20863	0.418628	-0.134928	0	0	-0.424455	-0.0217214	-0.258326	0	-0.468068	0	0	-0.290338	-0.0806191	-0.0815383	0.00463296	-0.345313	0.590928	0.597757	1.04494	0	0	-0.0274128	-0.271628	-0.0155744	0.401552	1.38829	0	0
0.28	3.10343	1.34536	-1.54627	0.647375	-0.394756	1.04527	-0.184525	-0.113557	-0.209474	0.420961	-0.133949	0	0	-0.42522	-0.0219613	-0.258696	0	-0.468691	0	0	-0.285439	-0.0755577	-0.0822382	0.00309598	-0.344138	0.586209	0.594526	1.04437	0	0	-0.0309354	-0.256389	-0.0170699	0.401456	1.37727	0	0
0.29	3.1052	1.34531	-1.54595	0.647312	-0.394342	1.04515	-0.185133	-0.113574	-0.211055	0.421942	-0.133123	0	0	-0.426238	-0.0221939	-0.258879	0	-0.469	0	0	-0.2806	-0.0706851	-0.0821438	0.00128299	-0.342786	0.581569	0.590895	1.04323	0	0	-0.0338058	-0.241003	-0.020036	0.400372	1.3612	0	0
0.3	3.10591	1.34799	-1.54477	0.647338	-0.393676	1.04484	-0.182667	-0.113486	-0.21314	0.423762	-0.13011	0	0	-0.424441	-0.0225888	-0.258482	0	-0.468165	0	0	-0.269659	-0.0655097	-0.0833674	9.87887e-05	-0.343891	0.589668	0.587958	0.988349	0	0	-0.0401337	-0.238101	0.0548337	0.402961	1.20801	0	0
0.31	3.10684	1.34897	-1.54378	0.647346	-0.393195	1.04474	-0.182288	-0.113265	-0.214527	0.424488	-0.129309	0	0	-0.423639	-0.0230779	-0.259417	0	-0.467889	0	0	-0.262734	-0.0606537	-0.0834743	-0.00215672	-0.343041	0.586652	0.584225	0.979358	0	0	-0.0436828	-0.224381	0.0542312	0.399905	1.19227	0	0
0.32	3.10843	1.3496	-1.54321	0.647287	-0.39283	1.04465	-0.182297	-0.113228	-0.21587	0.425008	-0.128998	0	0	-0.422709	-0.0234557	-0.26191	0	-0.467865	0	0	-0.257507	-0.0560002	-0.084074	-0.0034189	-0.342315	0.584178	0.580855	0.973272	0	0	-0.0461021	-0.210952	0.0528801	0.396604	1.18172	0	0
0.33	3.11039	1.34958	-1.5434	0.64725	-0.392494	1.0446	-0.183062	-0.113326	-0.216891	0.425241	-0.128881	0	0	-0.422502	-0.0236351	-0.263589	0	-0.467891	0	0	-0.253848	-0.0518024	-0.0842356	-0.00410651	-0.341898	0.582956	0.577823	0.967637	0	0	-0.0480608	-0.198391	0.0523947	0.394295	1.17397	0	0
